<svg width="103" height="24" viewBox="0 0 103 24" fill="none" xmlns="http://www.w3.org/2000/svg">
<g clip-path="url(#clip0_22_650)">
<path d="M18.9236 11.4389H16.1549C15.3625 11.4389 14.6026 11.1066 14.0423 10.5152C13.4819 9.92369 13.1669 9.12145 13.1666 8.28483V2.18818C13.162 1.61872 13.3695 1.07016 13.7445 0.660822C14.1194 0.251486 14.6317 0.0141739 15.1709 7.55216e-05C15.4374 -0.00229348 15.7017 0.0510933 15.9485 0.157177C16.1954 0.263261 16.4199 0.419927 16.6091 0.618129C16.7982 0.816331 16.9484 1.05216 17.0507 1.31197C17.1531 1.57177 17.2058 1.85039 17.2056 2.13178V8.86901C17.2013 9.26318 17.2767 9.65376 17.4267 10.0147C17.5767 10.3757 17.7979 10.6988 18.0755 10.9623C18.3155 11.1942 18.6073 11.3582 18.9236 11.4389Z" fill="#A3DC2F"/>
<path d="M20.7714 11.2724C22.068 11.2724 23.1191 10.1625 23.1191 8.79347C23.1191 7.42441 22.068 6.31458 20.7714 6.31458C19.4748 6.31458 18.4237 7.42441 18.4237 8.79347C18.4237 10.1625 19.4748 11.2724 20.7714 11.2724Z" fill="#A3DC2F"/>
<path d="M13.1665 19.57V16.6453C13.1668 15.8087 13.4818 15.0065 14.0422 14.415C14.6026 13.8236 15.3625 13.4913 16.1548 13.4913H21.9288C22.4681 13.4861 22.9877 13.7052 23.3752 14.1012C23.7628 14.4972 23.9871 15.0384 23.9999 15.6077C24.0021 15.889 23.9515 16.1681 23.8511 16.4287C23.7506 16.6894 23.6022 16.9264 23.4145 17.1262C23.2268 17.3259 23.0035 17.4844 22.7574 17.5925C22.5114 17.7006 22.2475 17.7562 21.981 17.756H15.6003C15.2271 17.7516 14.8572 17.8313 14.5153 17.9897C14.1735 18.1481 13.8675 18.3816 13.6178 18.6746C13.3987 18.9284 13.2435 19.2363 13.1665 19.57Z" fill="#A3DC2F"/>
<path d="M15.6719 23.9999C16.9685 23.9999 18.0196 22.8901 18.0196 21.521C18.0196 20.152 16.9685 19.0421 15.6719 19.0421C14.3753 19.0421 13.3242 20.152 13.3242 21.521C13.3242 22.8901 14.3753 23.9999 15.6719 23.9999Z" fill="#A3DC2F"/>
<path d="M5.07642 12.5612H7.84633C8.63866 12.5615 9.39843 12.8941 9.95859 13.4858C10.5187 14.0775 10.8334 14.8798 10.8334 15.7164V21.8131C10.8334 22.993 9.94772 23.991 8.83029 24C8.5637 24.0025 8.29926 23.9492 8.05228 23.8432C7.8053 23.7372 7.58067 23.5806 7.39136 23.3823C7.20205 23.1841 7.05183 22.9482 6.94937 22.6883C6.84691 22.4285 6.79424 22.1497 6.79441 21.8682V15.131C6.79891 14.737 6.72363 14.3465 6.5736 13.9857C6.42357 13.6249 6.20226 13.3021 5.9245 13.039C5.6844 12.8069 5.39269 12.6425 5.07642 12.5612Z" fill="#A3DC2F"/>
<path d="M3.22855 17.6855C4.52515 17.6855 5.57625 16.5756 5.57625 15.2066C5.57625 13.8375 4.52515 12.7277 3.22855 12.7277C1.93196 12.7277 0.880859 13.8375 0.880859 15.2066C0.880859 16.5756 1.93196 17.6855 3.22855 17.6855Z" fill="#A3DC2F"/>
<path d="M10.8322 4.4314V7.35481C10.8322 8.19142 10.5176 8.99381 9.9574 9.5855C9.39724 10.1772 8.63747 10.5098 7.84513 10.5101H2.07236C1.53304 10.515 1.01352 10.2958 0.625846 9.89993C0.238176 9.50401 0.0134236 8.96308 7.15046e-05 8.39378C-0.00217211 8.11239 0.0484039 7.83331 0.148873 7.57268C0.249342 7.31204 0.397716 7.07499 0.585428 6.87524C0.77314 6.67549 0.996476 6.51699 1.24253 6.40888C1.48858 6.30077 1.75247 6.24522 2.01897 6.2454H8.40567C8.77897 6.24992 9.1489 6.17031 9.49076 6.01192C9.83262 5.85353 10.1386 5.62 10.3882 5.32687C10.6052 5.07258 10.7579 4.76458 10.8322 4.4314Z" fill="#A3DC2F"/>
<path d="M8.32804 4.95791C9.62464 4.95791 10.6757 3.84807 10.6757 2.47902C10.6757 1.10996 9.62464 0.00012207 8.32804 0.00012207C7.03144 0.00012207 5.98035 1.10996 5.98035 2.47902C5.98035 3.84807 7.03144 4.95791 8.32804 4.95791Z" fill="#A3DC2F"/>
<path d="M33.7216 21V3.54545H44.9034V6.19602H36.8835V10.9347H44.1364V13.5852H36.8835V21H33.7216ZM47.6477 21V7.90909H50.733V21H47.6477ZM49.1989 6.05114C48.7102 6.05114 48.2898 5.8892 47.9375 5.56534C47.5852 5.23579 47.4091 4.84091 47.4091 4.38068C47.4091 3.91477 47.5852 3.51989 47.9375 3.19602C48.2898 2.86648 48.7102 2.7017 49.1989 2.7017C49.6932 2.7017 50.1136 2.86648 50.4602 3.19602C50.8125 3.51989 50.9886 3.91477 50.9886 4.38068C50.9886 4.84091 50.8125 5.23579 50.4602 5.56534C50.1136 5.8892 49.6932 6.05114 49.1989 6.05114ZM56.9908 13.3295V21H53.9055V7.90909H56.8544V10.1335H57.0078C57.3089 9.40057 57.7891 8.81818 58.4482 8.38636C59.1129 7.95455 59.9339 7.73864 60.9112 7.73864C61.8146 7.73864 62.6016 7.93182 63.272 8.31818C63.9482 8.70455 64.4709 9.2642 64.8402 9.99716C65.2152 10.7301 65.3999 11.6193 65.3942 12.6648V21H62.3089V13.142C62.3089 12.267 62.0817 11.5824 61.6271 11.0881C61.1783 10.5937 60.5561 10.3466 59.7607 10.3466C59.2209 10.3466 58.7408 10.4659 58.3203 10.7045C57.9055 10.9375 57.5788 11.2756 57.3402 11.7188C57.1072 12.1619 56.9908 12.6989 56.9908 13.3295ZM68.6669 21V3.54545H75.3487C76.6101 3.54545 77.6584 3.74432 78.4936 4.14204C79.3345 4.53409 79.9624 5.07102 80.3771 5.75284C80.7976 6.43466 81.0078 7.20739 81.0078 8.07102C81.0078 8.78125 80.8714 9.3892 80.5987 9.89489C80.326 10.3949 79.9595 10.8011 79.4993 11.1136C79.0391 11.4261 78.5249 11.6506 77.9567 11.7869V11.9574C78.576 11.9915 79.1697 12.1818 79.7379 12.5284C80.3118 12.8693 80.7805 13.3523 81.1442 13.9773C81.5078 14.6023 81.6896 15.358 81.6896 16.2443C81.6896 17.1477 81.4709 17.9602 81.0334 18.6818C80.5959 19.3977 79.9368 19.9631 79.0561 20.3778C78.1754 20.7926 77.0675 21 75.7322 21H68.6669ZM71.8288 18.358H75.2294C76.3771 18.358 77.2038 18.1392 77.7095 17.7017C78.2209 17.2585 78.4766 16.6903 78.4766 15.9972C78.4766 15.4801 78.3487 15.0142 78.093 14.5994C77.8374 14.179 77.4737 13.8494 77.0021 13.6108C76.5305 13.3665 75.968 13.2443 75.3146 13.2443H71.8288V18.358ZM71.8288 10.9688H74.9567C75.5021 10.9688 75.9936 10.8693 76.4311 10.6705C76.8686 10.4659 77.2124 10.179 77.4624 9.80966C77.718 9.43466 77.8459 8.99148 77.8459 8.48011C77.8459 7.80398 77.6072 7.24716 77.13 6.80966C76.6584 6.37216 75.9567 6.15341 75.0249 6.15341H71.8288V10.9688ZM84.304 21V7.90909H87.3892V21H84.304ZM85.8551 6.05114C85.3665 6.05114 84.946 5.8892 84.5938 5.56534C84.2415 5.23579 84.0653 4.84091 84.0653 4.38068C84.0653 3.91477 84.2415 3.51989 84.5938 3.19602C84.946 2.86648 85.3665 2.7017 85.8551 2.7017C86.3494 2.7017 86.7699 2.86648 87.1165 3.19602C87.4688 3.51989 87.6449 3.91477 87.6449 4.38068C87.6449 4.84091 87.4688 5.23579 87.1165 5.56534C86.7699 5.8892 86.3494 6.05114 85.8551 6.05114ZM90.3913 21V19.0398L97.1413 10.5767V10.4659H90.6129V7.90909H100.917V10.0142L94.4908 18.3324V18.4432H101.138V21H90.3913Z" fill="#1D1C20"/>
</g>
<defs>
<clipPath id="clip0_22_650">
<rect width="103" height="24" fill="white"/>
</clipPath>
</defs>
</svg>
